<svg width="48" height="48" viewBox="0 0 48 48" fill="none" xmlns="http://www.w3.org/2000/svg">
<path fill-rule="evenodd" clip-rule="evenodd" d="M15.7157 44L4 32.2843V15.3612L15.3612 4H32.2842L44 15.7158V31.9298L31.9298 44H15.7157ZM8 30.6275V17.0181L17.0181 8H30.6274L39.3137 16.6863L36 20V16H29.5L26 19.5V16L18 16L12 22V34.6275L8 30.6275ZM17.6569 40H22V20L19.6569 20L16 23.6569V38.3431L17.6569 40ZM26 40H29.8431L32 37.8431V20H31.1569L26 25.1569V40ZM40 21.6569V29.8432L36 33.8431V25.6569L40 21.6569Z" stroke="white" stroke-width="0.5"/>
</svg>
